<mxfile host="Electron" agent="Mozilla/5.0 (X11; Linux x86_64) AppleWebKit/537.36 (KHTML, like Gecko) draw.io/27.0.9 Chrome/134.0.6998.205 Electron/35.4.0 Safari/537.36" version="27.0.9">
  <diagram name="Page-1" id="jx8172wl0PXRr6kTKVzI">
    <mxGraphModel dx="881" dy="625" grid="1" gridSize="10" guides="1" tooltips="1" connect="1" arrows="1" fold="1" page="1" pageScale="1" pageWidth="850" pageHeight="1100" math="0" shadow="0">
      <root>
        <mxCell id="0" />
        <mxCell id="1" parent="0" />
        <mxCell id="5gemPtfy31_0dLnFuJml-55" value="distance &amp;gt; 320" style="rounded=1;whiteSpace=wrap;html=1;arcSize=30;absoluteArcSize=1;fillColor=#d5e8d4;strokeColor=#82b366;" vertex="1" parent="1">
          <mxGeometry x="600" y="380" width="100" height="30" as="geometry" />
        </mxCell>
        <mxCell id="5gemPtfy31_0dLnFuJml-58" value="" style="endArrow=classic;html=1;rounded=0;entryX=0.75;entryY=0;entryDx=0;entryDy=0;exitX=0.25;exitY=1;exitDx=0;exitDy=0;" edge="1" parent="1" source="5gemPtfy31_0dLnFuJml-55" target="5gemPtfy31_0dLnFuJml-64">
          <mxGeometry width="50" height="50" relative="1" as="geometry">
            <mxPoint x="550" y="520" as="sourcePoint" />
            <mxPoint x="625" y="529.9999999999999" as="targetPoint" />
          </mxGeometry>
        </mxCell>
        <mxCell id="5gemPtfy31_0dLnFuJml-59" value="&lt;span&gt;False&lt;/span&gt;" style="text;html=1;align=center;verticalAlign=middle;resizable=0;points=[];autosize=1;strokeColor=none;fillColor=none;imageAspect=1;" vertex="1" parent="1">
          <mxGeometry x="670" y="420" width="50" height="30" as="geometry" />
        </mxCell>
        <mxCell id="5gemPtfy31_0dLnFuJml-60" value="True" style="text;html=1;align=center;verticalAlign=middle;resizable=0;points=[];autosize=1;strokeColor=none;fillColor=none;" vertex="1" parent="1">
          <mxGeometry x="582" y="420" width="50" height="30" as="geometry" />
        </mxCell>
        <mxCell id="5gemPtfy31_0dLnFuJml-61" value="" style="endArrow=classic;html=1;rounded=0;exitX=0.75;exitY=1;exitDx=0;exitDy=0;entryX=0.25;entryY=0;entryDx=0;entryDy=0;" edge="1" parent="1" source="5gemPtfy31_0dLnFuJml-55">
          <mxGeometry width="50" height="50" relative="1" as="geometry">
            <mxPoint x="620" y="520" as="sourcePoint" />
            <mxPoint x="675" y="470" as="targetPoint" />
          </mxGeometry>
        </mxCell>
        <mxCell id="5gemPtfy31_0dLnFuJml-62" style="edgeStyle=orthogonalEdgeStyle;rounded=0;orthogonalLoop=1;jettySize=auto;html=1;entryX=0.5;entryY=0;entryDx=0;entryDy=0;" edge="1" parent="1" target="5gemPtfy31_0dLnFuJml-55">
          <mxGeometry relative="1" as="geometry">
            <mxPoint x="750" y="357.5" as="targetPoint" />
            <Array as="points">
              <mxPoint x="790" y="640" />
              <mxPoint x="790" y="360" />
              <mxPoint x="650" y="360" />
            </Array>
            <mxPoint x="610" y="640" as="sourcePoint" />
          </mxGeometry>
        </mxCell>
        <mxCell id="5gemPtfy31_0dLnFuJml-63" style="edgeStyle=orthogonalEdgeStyle;rounded=0;orthogonalLoop=1;jettySize=auto;html=1;exitX=0.75;exitY=1;exitDx=0;exitDy=0;" edge="1" parent="1" source="5gemPtfy31_0dLnFuJml-64">
          <mxGeometry relative="1" as="geometry">
            <mxPoint x="625" y="640" as="targetPoint" />
          </mxGeometry>
        </mxCell>
        <mxCell id="5gemPtfy31_0dLnFuJml-64" value="Forward" style="rounded=0;whiteSpace=wrap;html=1;fillColor=#dae8fc;strokeColor=#6c8ebf;" vertex="1" parent="1">
          <mxGeometry x="580" y="470" width="60" height="30" as="geometry" />
        </mxCell>
        <mxCell id="5gemPtfy31_0dLnFuJml-73" value="distance &amp;lt; 280" style="rounded=1;whiteSpace=wrap;html=1;arcSize=30;absoluteArcSize=1;fillColor=#d5e8d4;strokeColor=#82b366;" vertex="1" parent="1">
          <mxGeometry x="660" y="470" width="100" height="30" as="geometry" />
        </mxCell>
        <mxCell id="5gemPtfy31_0dLnFuJml-93" style="edgeStyle=orthogonalEdgeStyle;rounded=0;orthogonalLoop=1;jettySize=auto;html=1;exitX=0.5;exitY=1;exitDx=0;exitDy=0;" edge="1" parent="1" source="5gemPtfy31_0dLnFuJml-75">
          <mxGeometry relative="1" as="geometry">
            <mxPoint x="741.0434782608697" y="640" as="targetPoint" />
          </mxGeometry>
        </mxCell>
        <mxCell id="5gemPtfy31_0dLnFuJml-75" value="Stop" style="rounded=0;whiteSpace=wrap;html=1;fillColor=#dae8fc;strokeColor=#6c8ebf;" vertex="1" parent="1">
          <mxGeometry x="722" y="560" width="38" height="30" as="geometry" />
        </mxCell>
        <mxCell id="5gemPtfy31_0dLnFuJml-77" value="&lt;span&gt;False&lt;/span&gt;" style="text;html=1;align=center;verticalAlign=middle;resizable=0;points=[];autosize=1;strokeColor=none;fillColor=none;imageAspect=1;" vertex="1" parent="1">
          <mxGeometry x="732" y="510" width="50" height="30" as="geometry" />
        </mxCell>
        <mxCell id="5gemPtfy31_0dLnFuJml-78" value="True" style="text;html=1;align=center;verticalAlign=middle;resizable=0;points=[];autosize=1;strokeColor=none;fillColor=none;" vertex="1" parent="1">
          <mxGeometry x="641" y="510" width="50" height="30" as="geometry" />
        </mxCell>
        <mxCell id="5gemPtfy31_0dLnFuJml-94" style="edgeStyle=orthogonalEdgeStyle;rounded=0;orthogonalLoop=1;jettySize=auto;html=1;exitX=0.5;exitY=1;exitDx=0;exitDy=0;" edge="1" parent="1" source="5gemPtfy31_0dLnFuJml-81">
          <mxGeometry relative="1" as="geometry">
            <mxPoint x="679.9565217391305" y="640" as="targetPoint" />
          </mxGeometry>
        </mxCell>
        <mxCell id="5gemPtfy31_0dLnFuJml-81" value="Backward" style="rounded=0;whiteSpace=wrap;html=1;fillColor=#dae8fc;strokeColor=#6c8ebf;" vertex="1" parent="1">
          <mxGeometry x="650" y="560" width="60" height="30" as="geometry" />
        </mxCell>
        <mxCell id="5gemPtfy31_0dLnFuJml-90" style="edgeStyle=orthogonalEdgeStyle;rounded=0;orthogonalLoop=1;jettySize=auto;html=1;exitX=0.25;exitY=1;exitDx=0;exitDy=0;entryX=0.574;entryY=-0.035;entryDx=0;entryDy=0;entryPerimeter=0;" edge="1" parent="1" source="5gemPtfy31_0dLnFuJml-73" target="5gemPtfy31_0dLnFuJml-81">
          <mxGeometry relative="1" as="geometry" />
        </mxCell>
        <mxCell id="5gemPtfy31_0dLnFuJml-92" style="edgeStyle=orthogonalEdgeStyle;rounded=0;orthogonalLoop=1;jettySize=auto;html=1;exitX=0.75;exitY=1;exitDx=0;exitDy=0;entryX=0.341;entryY=-0.029;entryDx=0;entryDy=0;entryPerimeter=0;" edge="1" parent="1" source="5gemPtfy31_0dLnFuJml-73" target="5gemPtfy31_0dLnFuJml-75">
          <mxGeometry relative="1" as="geometry" />
        </mxCell>
      </root>
    </mxGraphModel>
  </diagram>
</mxfile>
